<svg width="52" height="64" viewBox="0 0 52 64" fill="none" xmlns="http://www.w3.org/2000/svg">
<g clip-path="url(#clip0_201_442)">
<path d="M50.5898 0H1.17981C0.874811 0 0.582244 0.121159 0.366577 0.336826C0.15091 0.552493 0.0297852 0.844999 0.0297852 1.15V58.72C0.0297852 59.025 0.15091 59.3175 0.366577 59.5332C0.582244 59.7488 0.874811 59.87 1.17981 59.87H4.50977V62.37C4.50843 62.5214 4.53728 62.6715 4.5946 62.8117C4.65193 62.9518 4.73657 63.0791 4.84363 63.1861C4.95068 63.2932 5.07801 63.3779 5.21814 63.4352C5.35827 63.4925 5.5084 63.5213 5.65979 63.52H45.6598C45.8112 63.5213 45.9613 63.4925 46.1014 63.4352C46.2416 63.3779 46.3689 63.2932 46.476 63.1861C46.583 63.0791 46.6677 62.9518 46.725 62.8117C46.7823 62.6715 46.8111 62.5214 46.8098 62.37V59.87H50.5898C50.894 59.8674 51.185 59.7454 51.4001 59.5303C51.6152 59.3152 51.7373 59.0242 51.7399 58.72V1.15C51.7373 0.845807 51.6152 0.554817 51.4001 0.339714C51.185 0.124611 50.894 0.00261122 50.5898 0ZM2.2998 2.3H24.7198V57.57H2.2998V2.3ZM44.5198 61.3H6.76978V59.87H44.5198V61.3ZM49.4398 57.61H27.0198V2.3H49.4398V57.61Z" fill="black"/>
<path d="M34.6198 6.73999H32.3198V32.24H34.6198V6.73999Z" fill="black"/>
<path d="M31.7798 47.77L32.9298 49.77L37.0798 47.37V52.16H39.3798V47.37L43.5198 49.76L44.6698 47.76L40.5198 45.37L44.6698 42.97L43.5198 40.97L39.3698 43.37V38.58H37.0798V43.37L32.9298 40.98L31.7798 42.98L35.9298 45.38L31.7798 47.77ZM36.0598 45.38L37.1398 43.5H39.3098L40.3998 45.38L39.3098 47.26H37.1798L36.0598 45.38Z" fill="black"/>
<path d="M19.4299 6.73999H17.1299V32.24H19.4299V6.73999Z" fill="black"/>
<path d="M12.7099 5.12H10.1299V7.42H12.7099V5.12Z" fill="black"/>
<path d="M7.08 5.12H4.5V7.42H7.08V5.12Z" fill="black"/>
</g>
<defs>
<clipPath id="clip0_201_442">
<rect width="51.74" height="63.55" fill="white"/>
</clipPath>
</defs>
</svg>
