<svg width="60" height="52" viewBox="0 0 60 52" fill="none" xmlns="http://www.w3.org/2000/svg">
<g clip-path="url(#clip0_201_456)">
<path d="M41.1698 43.8H38.5898V46.1H41.1698V43.8Z" fill="black"/>
<path d="M35.54 43.8H32.96V46.1H35.54V43.8Z" fill="black"/>
<path d="M46.8002 43.8H44.2202V46.1H46.8002V43.8Z" fill="black"/>
<path d="M52.4399 43.8H49.8599V46.1H52.4399V43.8Z" fill="black"/>
<path d="M58.2102 51.23H1.15012C0.996147 51.2315 0.843545 51.2017 0.701389 51.1426C0.559234 51.0834 0.430563 50.996 0.323094 50.8857C0.215625 50.7755 0.131517 50.6446 0.0760233 50.5009C0.0205298 50.3573 -0.00519196 50.2039 0.000217614 50.05V1.15004C-0.00111631 0.99865 0.0276139 0.848511 0.0849344 0.708384C0.142255 0.568257 0.226904 0.440953 0.333958 0.333899C0.441012 0.226845 0.568343 0.142185 0.70847 0.0848641C0.848596 0.0275435 0.998728 -0.00128967 1.15012 4.42556e-05H58.2102C58.3607 3.84632e-05 58.5098 0.0298524 58.6488 0.087767C58.7877 0.145682 58.9139 0.230549 59.0199 0.337469C59.1259 0.44439 59.2095 0.571243 59.2662 0.710711C59.3229 0.850178 59.3515 0.999496 59.3502 1.15004V50.05C59.3556 50.2031 59.33 50.3556 59.2751 50.4986C59.2202 50.6416 59.1371 50.772 59.0307 50.8821C58.9243 50.9923 58.7968 51.0798 58.6559 51.1396C58.5149 51.1994 58.3633 51.2301 58.2102 51.23ZM2.29013 48.94H57.0602V2.30004H2.29013V48.94Z" fill="black"/>
<path d="M15.6899 43.8C13.0464 43.8001 10.5104 42.7534 8.63647 40.8888C6.76254 39.0242 5.70316 36.4935 5.68994 33.85C5.70316 31.2065 6.76254 28.6758 8.63647 26.8113C10.5104 24.9467 13.0464 23.9 15.6899 23.9C18.3421 23.9 20.8856 24.9536 22.761 26.829C24.6364 28.7043 25.6899 31.2479 25.6899 33.9C25.6636 36.5348 24.5983 39.0527 22.7258 40.9065C20.8533 42.7603 18.3249 43.8002 15.6899 43.8ZM15.6899 26.19C13.6592 26.1927 11.7123 27.0006 10.2764 28.4365C8.84041 29.8725 8.03255 31.8193 8.02991 33.85C8.03255 35.8808 8.84041 37.8276 10.2764 39.2635C11.7123 40.6995 13.6592 41.5074 15.6899 41.51C17.7207 41.5074 19.6676 40.6995 21.1035 39.2635C22.5395 37.8276 23.3473 35.8808 23.35 33.85C23.3473 31.8193 22.5395 29.8725 21.1035 28.4365C19.6676 27.0006 17.7207 26.1927 15.6899 26.19Z" fill="black"/>
<path d="M44.2201 40.3001C42.5103 40.2974 40.8711 39.617 39.6621 38.408C38.4531 37.1989 37.7727 35.5599 37.77 33.8501C37.7727 32.1402 38.4531 30.5012 39.6621 29.2921C40.8711 28.0831 42.5103 27.4027 44.2201 27.4001C45.0688 27.3974 45.9096 27.5623 46.6945 27.8853C47.4793 28.2082 48.1928 28.6829 48.7938 29.2821C49.3949 29.8813 49.8718 30.5933 50.1971 31.3771C50.5225 32.161 50.6901 33.0013 50.6901 33.8501C50.6901 34.6988 50.5225 35.5391 50.1971 36.323C49.8718 37.1068 49.3949 37.8188 48.7938 38.418C48.1928 39.0172 47.4793 39.4919 46.6945 39.8148C45.9096 40.1378 45.0688 40.3027 44.2201 40.3001ZM44.2201 29.6901C43.1185 29.6927 42.0629 30.1322 41.2849 30.912C40.5069 31.6919 40.0701 32.7485 40.0701 33.8501C40.0648 34.3989 40.1682 34.9433 40.3743 35.452C40.5803 35.9607 40.885 36.4236 41.2708 36.814C41.6565 37.2044 42.1156 37.5146 42.6218 37.7267C43.128 37.9389 43.6713 38.0488 44.2201 38.0501C45.3226 38.0474 46.3791 37.6083 47.1587 36.8287C47.9383 36.0491 48.3774 34.9925 48.38 33.8901C48.384 33.3408 48.2794 32.7961 48.0723 32.2874C47.8651 31.7786 47.5594 31.3158 47.1729 30.9255C46.7863 30.5353 46.3264 30.2252 45.8197 30.0132C45.313 29.8012 44.7694 29.6914 44.2201 29.6901Z" fill="black"/>
<path d="M43.5199 20.56H36.7699C34.6782 20.5574 32.6729 19.7253 31.1938 18.2462C29.7148 16.7671 28.8825 14.7618 28.8799 12.67C28.8799 10.5765 29.7109 8.56866 31.1903 7.08741C32.6697 5.60616 34.6764 4.77267 36.7699 4.77002H43.5199C44.5573 4.77002 45.5846 4.97436 46.5431 5.37137C47.5016 5.76838 48.3725 6.35029 49.1061 7.08387C49.8397 7.81746 50.4216 8.68835 50.8186 9.64682C51.2156 10.6053 51.4199 11.6326 51.4199 12.67C51.4173 14.7635 50.5838 16.7703 49.1025 18.2497C47.6213 19.7291 45.6134 20.56 43.5199 20.56ZM36.7699 7.05002C35.2855 7.05266 33.8627 7.64351 32.8131 8.69314C31.7635 9.74277 31.1726 11.1656 31.1699 12.65C31.1752 14.1336 31.7669 15.5549 32.8159 16.604C33.865 17.6531 35.2863 18.2447 36.7699 18.25H43.5199C45.0043 18.2474 46.4272 17.6565 47.4768 16.6069C48.5264 15.5573 49.1174 14.1344 49.12 12.65C49.12 11.1648 48.5299 9.74042 47.4797 8.69022C46.4295 7.64002 45.0051 7.05002 43.5199 7.05002H36.7699Z" fill="black"/>
<path d="M15.6898 20.56C13.5981 20.5574 11.5927 19.7253 10.1136 18.2462C8.63456 16.7671 7.80245 14.7618 7.7998 12.67C7.7998 10.5765 8.63073 8.56866 10.1101 7.08741C11.5895 5.60616 13.5963 4.77267 15.6898 4.77002C17.785 4.77002 19.7945 5.60234 21.276 7.08387C22.7575 8.56541 23.5898 10.5748 23.5898 12.67C23.5872 14.7635 22.7537 16.7703 21.2725 18.2497C19.7912 19.7291 17.7833 20.56 15.6898 20.56ZM15.6898 7.05002C14.2054 7.05266 12.7825 7.64351 11.7329 8.69314C10.6833 9.74277 10.0925 11.1656 10.0898 12.65C10.0951 14.1336 10.6868 15.5549 11.7358 16.604C12.7849 17.6531 14.2062 18.2447 15.6898 18.25C17.1742 18.2474 18.5971 17.6565 19.6467 16.6069C20.6964 15.5573 21.2872 14.1344 21.2898 12.65C21.2898 11.1648 20.6999 9.74042 19.6497 8.69022C18.5995 7.64002 17.175 7.05002 15.6898 7.05002Z" fill="black"/>
<path d="M15.6899 39.31C14.2427 39.3074 12.8554 38.7313 11.832 37.7079C10.8087 36.6845 10.2326 35.2973 10.23 33.85C10.2326 32.4027 10.8087 31.0155 11.832 29.9921C12.8554 28.9688 14.2427 28.3927 15.6899 28.39C17.1372 28.3927 18.5245 28.9688 19.5479 29.9921C20.5712 31.0155 21.1473 32.4027 21.1499 33.85C21.1473 35.2973 20.5712 36.6845 19.5479 37.7079C18.5245 38.7313 17.1372 39.3074 15.6899 39.31ZM15.6899 30.68C14.8509 30.6827 14.0472 31.0178 13.4548 31.612C12.8625 32.2062 12.5299 33.011 12.5299 33.85C12.5259 34.268 12.6047 34.6826 12.7616 35.07C12.9185 35.4574 13.1505 35.81 13.4442 36.1074C13.7379 36.4048 14.0875 36.6412 14.4729 36.803C14.8583 36.9648 15.272 37.0487 15.6899 37.05C16.5307 37.05 17.337 36.716 17.9315 36.1215C18.526 35.5271 18.86 34.7208 18.86 33.88C18.8639 33.4612 18.7849 33.0458 18.6273 32.6577C18.4698 32.2696 18.2369 31.9166 17.9421 31.6191C17.6474 31.3215 17.2966 31.0853 16.91 30.9242C16.5235 30.763 16.1088 30.68 15.6899 30.68Z" fill="black"/>
</g>
<defs>
<clipPath id="clip0_201_456">
<rect width="59.35" height="51.23" fill="white"/>
</clipPath>
</defs>
</svg>
