<svg width="57" height="67" viewBox="0 0 57 67" fill="none" xmlns="http://www.w3.org/2000/svg">
<g clip-path="url(#clip0_201_495)">
<path d="M23.2899 39.25C23.312 39.6416 23.2313 40.0321 23.0559 40.383C22.8805 40.7338 22.6164 41.0327 22.2899 41.25L22.8498 42.25L23.3899 43.25C24.0674 42.8309 24.6222 42.2403 24.998 41.5379C25.3738 40.8354 25.5573 40.0461 25.5299 39.25C25.385 37.8672 24.7832 36.5723 23.8198 35.57C23.1131 34.8628 22.6417 33.9548 22.4698 32.97C22.4516 32.4695 22.5382 31.9707 22.7242 31.5057C22.9102 31.0407 23.1915 30.6198 23.5499 30.27L22.1499 28.45C21.5079 29.0126 20.9963 29.7085 20.6509 30.4892C20.3054 31.2698 20.1345 32.1164 20.1499 32.97C20.2888 34.4702 20.93 35.8796 21.9698 36.97C22.6255 37.5828 23.0849 38.3762 23.2899 39.25Z" fill="black"/>
<path d="M28.2401 39.25C28.2622 39.6416 28.1815 40.0321 28.0061 40.383C27.8307 40.7338 27.5666 41.0327 27.2401 41.25L27.8001 42.25L28.3401 43.25C29.0176 42.8309 29.5724 42.2403 29.9482 41.5379C30.324 40.8354 30.5075 40.0461 30.4801 39.25C30.3352 37.8672 29.7335 36.5723 28.7701 35.57C28.0634 34.8628 27.592 33.9548 27.4201 32.97C27.4019 32.4695 27.4884 31.9707 27.6744 31.5057C27.8604 31.0407 28.1417 30.6198 28.5001 30.27L27.1001 28.45C26.4581 29.0126 25.9466 29.7085 25.6012 30.4892C25.2557 31.2698 25.0847 32.1164 25.1001 32.97C25.239 34.4702 25.8804 35.8796 26.9201 36.97C27.5758 37.5828 28.0351 38.3762 28.2401 39.25Z" fill="black"/>
<path d="M33.8302 39.25C33.8577 39.6369 33.7847 40.0245 33.6183 40.3749C33.4518 40.7253 33.1976 41.0268 32.8802 41.25L33.4402 42.25L33.9802 43.25C34.6578 42.8309 35.2125 42.2403 35.5884 41.5379C35.9642 40.8354 36.1477 40.0461 36.1202 39.25C35.9754 37.8672 35.3737 36.5723 34.4103 35.57C33.7035 34.8628 33.232 33.9548 33.0602 32.97C33.0419 32.4695 33.1285 31.9707 33.3145 31.5057C33.5005 31.0407 33.7818 30.6198 34.1402 30.27L32.7402 28.45C32.0982 29.0126 31.5867 29.7085 31.2413 30.4892C30.8959 31.2698 30.7249 32.1164 30.7402 32.97C30.8788 34.4723 31.5241 35.8828 32.5702 36.97C33.2015 37.5923 33.6392 38.3842 33.8302 39.25Z" fill="black"/>
<path d="M55.2399 4.38604e-05H1.23991C1.08937 -0.00127677 0.940049 0.0272379 0.800581 0.0839367C0.661114 0.140635 0.534211 0.224398 0.42729 0.330389C0.32037 0.43638 0.235571 0.562497 0.177657 0.701464C0.119742 0.840431 0.0898822 0.989495 0.089888 1.14005V65.74C0.0885541 65.8914 0.117406 66.0416 0.174727 66.1817C0.232047 66.3218 0.316696 66.4491 0.42375 66.5562C0.530804 66.6632 0.658135 66.7479 0.798262 66.8052C0.938389 66.8625 1.08852 66.8914 1.23991 66.89H55.2399C55.5379 66.8797 55.8203 66.754 56.0274 66.5394C56.2345 66.3248 56.3501 66.0382 56.3499 65.74V1.14005C56.3475 0.843586 56.2307 0.559506 56.0238 0.347094C55.817 0.134681 55.5362 0.0103462 55.2399 4.38604e-05ZM54.05 14.74V56.1H2.28996V14.74H54.05ZM54.05 12.44H24.6199V2.29004H54.05V12.44ZM2.28996 2.31005H22.29V12.44H2.28996V2.31005ZM54.05 64.65H2.28996V58.4H54.05V64.65Z" fill="black"/>
<path d="M28.1703 52.9401C31.0939 52.9436 33.9694 52.1972 36.5221 50.772C39.0748 49.3468 41.2192 47.2907 42.7502 44.8001L43.4502 45.1801C43.6166 45.2676 43.8022 45.3123 43.9902 45.3101C44.1053 45.3082 44.2195 45.2914 44.3302 45.2601C44.4734 45.2158 44.6065 45.1435 44.7216 45.0474C44.8366 44.9512 44.9313 44.8332 45.0002 44.7001C46.4509 41.9613 47.2096 38.9093 47.2102 35.8101C47.2096 32.7108 46.4509 29.6588 45.0002 26.9201C44.9307 26.7861 44.8353 26.6672 44.7195 26.5704C44.6037 26.4736 44.4698 26.4007 44.3256 26.3561C44.1814 26.3114 44.0298 26.2959 43.8795 26.3103C43.7293 26.3247 43.5833 26.3688 43.4502 26.4401L42.7402 26.8201C41.2086 24.3322 39.0655 22.278 36.515 20.8531C33.9646 19.4282 31.0918 18.6801 28.1703 18.6801C23.6305 18.688 19.279 20.4956 16.0698 23.7067C12.8606 26.9178 11.0556 31.2703 11.0503 35.8101C11.0556 40.3499 12.8606 44.7024 16.0698 47.9134C19.279 51.1245 23.6305 52.9321 28.1703 52.9401ZM43.4802 29.0301C44.4252 31.1658 44.9156 33.4747 44.9203 35.8101C44.9156 38.1455 44.4252 40.4544 43.4802 42.5901L42.1202 41.8801C42.9618 39.9673 43.3944 37.8998 43.3903 35.8101C43.3944 33.7203 42.9618 31.6528 42.1202 29.7401L43.4802 29.0301ZM28.1703 21.0301C30.6744 21.0269 33.1383 21.6592 35.3314 22.8677C37.5246 24.0762 39.3753 25.8215 40.7102 27.9401L40.0702 28.2801C39.8015 28.4225 39.6002 28.6655 39.5103 28.956C39.4203 29.2464 39.449 29.5607 39.5902 29.8301C40.5766 31.676 41.0919 33.7371 41.0902 35.8301C41.0919 37.9231 40.5766 39.9841 39.5902 41.8301C39.449 42.0994 39.4203 42.4137 39.5103 42.7041C39.6002 42.9946 39.8015 43.2376 40.0702 43.3801L40.7102 43.7201C39.3753 45.8386 37.5246 47.5839 35.3314 48.7924C33.1383 50.0009 30.6744 50.6332 28.1703 50.6301C24.2388 50.6248 20.4697 49.0606 17.6897 46.2806C14.9097 43.5006 13.3455 39.7316 13.3402 35.8001C13.3481 31.8703 14.9135 28.1038 17.6932 25.326C20.473 22.5481 24.2405 20.9853 28.1703 20.9801V21.0301Z" fill="black"/>
<path d="M30.2402 11.32C31.1783 11.3174 32.0772 10.9435 32.7405 10.2802C33.4038 9.61692 33.7776 8.71805 33.7803 7.77999C33.7803 6.84112 33.4073 5.94071 32.7434 5.27683C32.0795 4.61295 31.1791 4.23999 30.2402 4.23999C29.3014 4.23999 28.4009 4.61295 27.7371 5.27683C27.0732 5.94071 26.7002 6.84112 26.7002 7.77999C26.7028 8.71805 27.0767 9.61692 27.74 10.2802C28.4033 10.9435 29.3022 11.3174 30.2402 11.32ZM30.2402 6.52999C30.5718 6.52999 30.8897 6.66169 31.1241 6.89611C31.3586 7.13053 31.4902 7.44847 31.4902 7.77999C31.4876 8.10978 31.3547 8.42516 31.1206 8.65742C30.8865 8.88968 30.57 9.02 30.2402 9.01999C29.9122 9.01737 29.5983 8.88589 29.3663 8.65391C29.1344 8.42193 29.0029 8.10805 29.0002 7.77999C29.0002 7.4502 29.1305 7.13376 29.3628 6.89962C29.5951 6.66549 29.9104 6.53263 30.2402 6.52999Z" fill="black"/>
<path d="M9.16984 6.63H6.83984V8.93001H9.16984V6.63Z" fill="black"/>
<path d="M13.8202 6.63H11.4902V8.93001H13.8202V6.63Z" fill="black"/>
<path d="M18.4799 6.63H16.1499V8.93001H18.4799V6.63Z" fill="black"/>
<path d="M42.8398 6.94995H40.5098V9.24995H42.8398V6.94995Z" fill="black"/>
<path d="M47.4999 6.94995H45.1699V9.24995H47.4999V6.94995Z" fill="black"/>
</g>
<defs>
<clipPath id="clip0_201_495">
<rect width="56.35" height="66.93" fill="white"/>
</clipPath>
</defs>
</svg>
