<svg width="58" height="60" viewBox="0 0 58 60" fill="none" xmlns="http://www.w3.org/2000/svg">
<g clip-path="url(#clip0_201_512)">
<path d="M42.1798 9.19995H39.2998V11.5H42.1798V9.19995Z" fill="black"/>
<path d="M36.17 9.19995H33.29V11.5H36.17V9.19995Z" fill="black"/>
<path d="M30.17 9.19995H27.29V11.5H30.17V9.19995Z" fill="black"/>
<path d="M52.9602 50.67H50.1703C54.0803 48.35 56.6502 44.51 56.6502 40.16V30.79C56.6516 30.6395 56.6231 30.4901 56.5664 30.3507C56.5097 30.2112 56.4259 30.0843 56.3199 29.9774C56.2139 29.8705 56.0878 29.7856 55.9488 29.7277C55.8099 29.6698 55.6608 29.64 55.5102 29.64H42.7402V25.54H47.6502C47.7999 25.54 47.9482 25.5105 48.0865 25.4532C48.2248 25.3959 48.3504 25.312 48.4563 25.2061C48.5621 25.1002 48.6462 24.9746 48.7035 24.8363C48.7608 24.6979 48.7903 24.5497 48.7903 24.4V19.4H51.2002C51.5052 19.4 51.7977 19.2788 52.0134 19.0632C52.2291 18.8475 52.3502 18.555 52.3502 18.25V11.5H55.5102V9.2H52.3202C52.1897 6.71933 51.1134 4.383 49.3128 2.67169C47.5122 0.960381 45.1243 0.00424627 42.6402 0H9.70017C7.12838 0.00264724 4.66274 1.02546 2.84421 2.84399C1.02568 4.66252 0.00286558 7.12821 0.000218345 9.7C0.00469334 12.0321 0.847468 14.2849 2.37485 16.0473C3.90224 17.8096 6.01235 18.9641 8.32016 19.3C9.23139 19.6766 10.011 20.3143 10.5608 21.1328C11.1106 21.9512 11.4061 22.914 11.4103 23.9L9.21018 46.06V46.17C9.20754 47.3627 8.7326 48.5057 7.88926 49.3491C7.04591 50.1924 5.90284 50.6674 4.71018 50.67C3.46101 50.67 2.26303 51.1662 1.37973 52.0495C0.496439 52.9328 0.000218345 54.1308 0.000218345 55.38V58.6C-0.00511787 58.7514 0.0198147 58.9023 0.0734605 59.0439C0.127106 59.1856 0.208325 59.3151 0.312596 59.425C0.416868 59.5348 0.542105 59.6228 0.68076 59.6838C0.819416 59.7447 0.968771 59.7774 1.12021 59.78H56.5002C56.6559 59.7842 56.8107 59.7565 56.9552 59.6985C57.0997 59.6406 57.2308 59.5536 57.3404 59.4431C57.4501 59.3325 57.5359 59.2007 57.5926 59.0557C57.6493 58.9107 57.6758 58.7556 57.6703 58.6V55.38C57.6703 54.1308 57.174 52.9328 56.2907 52.0495C55.4074 51.1662 54.2093 50.67 52.9602 50.67ZM54.3602 40.16C54.3602 45.96 48.6302 50.67 41.5902 50.67C34.5502 50.67 28.8202 45.96 28.8202 40.16V31.93H54.3602V40.16ZM40.4402 29.6H27.6703C27.5197 29.6 27.3706 29.6298 27.2317 29.6877C27.0927 29.7456 26.9666 29.8305 26.8606 29.9374C26.7546 30.0443 26.6708 30.1712 26.6141 30.3107C26.5574 30.4501 26.5289 30.5995 26.5302 30.75V40.12C26.5302 44.47 29.1002 48.31 33.0102 50.63H30.8302C28.566 50.6273 26.3954 49.7268 24.7944 48.1258C23.1934 46.5248 22.2929 44.3541 22.2903 42.09V27.95C22.2929 25.6859 23.1934 23.5152 24.7944 21.9142C26.3954 20.3132 28.566 19.4126 30.8302 19.41H33.5802V24.41C33.5828 24.7133 33.7051 25.0032 33.9205 25.2167C34.1359 25.4302 34.4269 25.55 34.7302 25.55H40.4402V29.6ZM46.5002 23.21H35.8802V19.37H46.5002V23.21ZM2.29026 9.7C2.29554 7.73637 3.0779 5.85467 4.4664 4.46617C5.85491 3.07767 7.73654 2.29528 9.70017 2.29H42.6402C44.6047 2.29264 46.4879 3.07419 47.8769 4.46326C49.266 5.85233 50.0476 7.73556 50.0503 9.7V17.11H9.70017C7.73573 17.1074 5.85255 16.3258 4.46348 14.9367C3.0744 13.5477 2.2929 11.6644 2.29026 9.7ZM55.3802 57.49H2.29026V55.38C2.2929 54.7399 2.54899 54.1269 3.00254 53.6753C3.45609 53.2236 4.07008 52.97 4.71018 52.97C6.50157 52.9674 8.21968 52.2581 9.49106 50.9961C10.7624 49.7341 11.4844 48.0213 11.5002 46.23L13.7002 24.02C13.7102 23.9437 13.7102 23.8663 13.7002 23.79C13.6774 22.1979 13.129 20.658 12.1402 19.41H24.1402C22.8399 20.4212 21.7882 21.7165 21.0654 23.1967C20.3426 24.6769 19.968 26.3028 19.9702 27.95V42.13C19.9728 45.0024 21.1143 47.7565 23.1445 49.7886C25.1747 51.8206 27.9279 52.9647 30.8003 52.97H52.9303C53.5704 52.97 54.1844 53.2236 54.6379 53.6753C55.0915 54.1269 55.3475 54.7399 55.3502 55.38L55.3802 57.49Z" fill="black"/>
</g>
<defs>
<clipPath id="clip0_201_512">
<rect width="57.68" height="59.78" fill="white"/>
</clipPath>
</defs>
</svg>
