<svg width="77" height="72" viewBox="0 0 77 72" fill="none" xmlns="http://www.w3.org/2000/svg">
<g clip-path="url(#clip0_201_507)">
<path d="M74.6398 0H50.5298C49.9994 0 49.4907 0.210712 49.1156 0.585785C48.7405 0.960858 48.5298 1.46957 48.5298 2V7.57C48.5298 8.10043 48.7405 8.60914 49.1156 8.98421C49.4907 9.35928 49.9994 9.57 50.5298 9.57H56.3698V11.85C56.3724 12.1533 56.4948 12.4432 56.7102 12.6567C56.9256 12.8702 57.2165 12.99 57.5198 12.99H61.4398V61.8C61.4385 62.7692 61.2464 63.7286 60.8743 64.6234C60.5022 65.5183 59.9575 66.3312 59.2712 67.0155C58.585 67.6999 57.7706 68.2424 56.8748 68.6121C55.9789 68.9817 55.019 69.1713 54.0498 69.17C52.096 69.1674 50.2229 68.39 48.8413 67.0085C47.4597 65.6269 46.6825 63.7538 46.6798 61.8V16.16C46.6745 12.5636 45.2427 9.11608 42.6987 6.57395C40.1547 4.03181 36.7063 2.60264 33.1099 2.6C29.9704 2.60058 26.9284 3.69049 24.5029 5.68376C22.0774 7.67704 20.4187 10.4502 19.8098 13.53H17.2998C16.9965 13.5326 16.7066 13.655 16.493 13.8703C16.2795 14.0857 16.1598 14.3767 16.1598 14.68V18.4H15.4598C15.1548 18.4 14.8623 18.5212 14.6466 18.7368C14.4309 18.9525 14.3098 19.245 14.3098 19.55V24.49C11.357 25.7359 8.83503 27.8217 7.05725 30.4883C5.27947 33.155 4.32416 36.2851 4.30981 39.49V49.88C3.16979 49.9238 2.09057 50.4057 1.297 51.2253C0.503429 52.0449 0.0566911 53.1392 0.0498047 54.28V67.03C0.0524461 68.2041 0.520005 69.3293 1.35022 70.1596C2.18043 70.9898 3.30576 71.4574 4.47986 71.46H36.9897C38.1638 71.4574 39.2892 70.9898 40.1194 70.1596C40.9496 69.3293 41.4172 68.2041 41.4198 67.03V54.28C41.4121 53.1206 40.9501 52.0105 40.1331 51.1878C39.316 50.3652 38.2091 49.8957 37.0498 49.88V39.53C37.0355 36.3251 36.0801 33.195 34.3024 30.5283C32.5246 27.8617 30.0027 25.7759 27.0498 24.53V19.59C27.0511 19.4395 27.0226 19.2901 26.9659 19.1507C26.9092 19.0112 26.8255 18.8843 26.7195 18.7774C26.6135 18.6705 26.4874 18.5856 26.3484 18.5277C26.2094 18.4698 26.0603 18.44 25.9098 18.44H25.0498V14.68C25.0498 14.375 24.9287 14.0825 24.713 13.8668C24.4973 13.6512 24.2048 13.53 23.8998 13.53H22.1898C22.7803 11.0697 24.1813 8.87974 26.1676 7.3125C28.1539 5.74527 30.6097 4.89198 33.1398 4.89C36.1279 4.89265 38.993 6.08087 41.106 8.19383C43.2189 10.3068 44.4071 13.1718 44.4098 16.16V61.8C44.4151 64.3569 45.4318 66.8079 47.2379 68.6178C49.0441 70.4277 51.4929 71.4494 54.0498 71.46C56.611 71.4574 59.0665 70.4388 60.8776 68.6277C62.6886 66.8167 63.7072 64.3612 63.7098 61.8V13.03H68.3098C68.6131 13.03 68.9041 12.9102 69.1195 12.6967C69.3349 12.4832 69.4572 12.1933 69.4598 11.89V9.61H74.6198C75.1502 9.61 75.659 9.39928 76.0341 9.02421C76.4091 8.64914 76.6198 8.14043 76.6198 7.61V2.04C76.6251 1.77568 76.578 1.51294 76.4811 1.26696C76.3842 1.02099 76.2395 0.796659 76.0554 0.606953C75.8713 0.417247 75.6513 0.265928 75.4083 0.161747C75.1654 0.0575659 74.9041 0.00259055 74.6398 0ZM27.1898 27.12C26.5472 28.2741 25.6074 29.2352 24.4679 29.9034C23.3284 30.5716 22.0308 30.9226 20.7098 30.92C19.3881 30.9206 18.0902 30.5676 16.9508 29.8977C15.8114 29.2278 14.872 28.2653 14.2299 27.11C16.2287 26.0597 18.4531 25.5117 20.7111 25.5134C22.969 25.5152 25.1926 26.0666 27.1898 27.12ZM2.2998 67.03V54.28C2.29965 53.7236 2.51718 53.1893 2.90588 52.7913C3.29459 52.3932 3.82356 52.1631 4.37976 52.15V69.15C3.82529 69.137 3.29785 68.9082 2.90942 68.5123C2.521 68.1164 2.30226 67.5846 2.2998 67.03ZM14.7498 69.17V49.52C14.7498 47.9287 15.382 46.4026 16.5072 45.2774C17.6324 44.1521 19.1585 43.52 20.7498 43.52C22.3411 43.52 23.8672 44.1521 24.9924 45.2774C26.1176 46.4026 26.7498 47.9287 26.7498 49.52V69.17H14.7498ZM39.0498 54.28V67.03C39.0484 67.5724 38.8411 68.094 38.4698 68.4894C38.0986 68.8848 37.591 69.1245 37.0498 69.16V52.16C37.5902 52.193 38.0976 52.4306 38.4691 52.8244C38.8406 53.2182 39.0483 53.7386 39.0498 54.28ZM34.7299 39.51V69.17H28.9398V49.52C28.9398 47.3293 28.0696 45.2283 26.5205 43.6793C24.9715 42.1302 22.8705 41.26 20.6798 41.26C18.4899 41.2626 16.3905 42.1337 14.842 43.6822C13.2936 45.2307 12.4224 47.3301 12.4198 49.52V69.17H6.63977V51.45C6.69919 51.3144 6.72992 51.168 6.72986 51.02C6.72992 50.872 6.69919 50.7256 6.63977 50.59V39.53C6.63663 37.3447 7.14515 35.1891 8.12451 33.2356C9.10388 31.282 10.5269 29.5849 12.2798 28.28C13.1281 29.7676 14.3547 31.0043 15.8352 31.8649C17.3157 32.7254 18.9974 33.1791 20.7098 33.18C22.424 33.1809 24.1077 32.728 25.5901 31.8674C27.0725 31.0067 28.3007 29.769 29.1498 28.28C30.8937 29.5913 32.3084 31.2905 33.2821 33.2431C34.2558 35.1957 34.7617 37.3481 34.7598 39.53L34.7299 39.51ZM23.3499 23.41L22.6698 23.3L22.0999 23.24C21.6299 23.24 21.1598 23.17 20.6798 23.17C20.1998 23.17 19.7398 23.17 19.2698 23.24L18.7098 23.3L17.9897 23.41C17.5197 23.49 17.0599 23.59 16.5999 23.71V20.71H24.7698V23.71C24.3298 23.61 23.8598 23.51 23.3798 23.43L23.3499 23.41ZM22.7098 18.41H18.4398V15.84H22.7098V18.41ZM67.1498 10.75H58.6398V9.62H67.1498V10.75ZM74.3398 7.33H50.7698V2.33H74.3398V7.33Z" fill="black"/>
<path d="M20.71 47.61C19.634 47.6126 18.6029 48.0412 17.842 48.802C17.0812 49.5629 16.6525 50.594 16.6499 51.67C16.6525 52.746 17.0812 53.7771 17.842 54.5379C18.6029 55.2987 19.634 55.7273 20.71 55.73C21.7867 55.73 22.8194 55.3022 23.5808 54.5408C24.3422 53.7794 24.7699 52.7468 24.7699 51.67C24.7699 50.5932 24.3422 49.5605 23.5808 48.7991C22.8194 48.0377 21.7867 47.61 20.71 47.61ZM20.71 53.44C20.478 53.44 20.2482 53.3941 20.0341 53.3051C19.8199 53.216 19.6255 53.0855 19.4619 52.921C19.2984 52.7565 19.1689 52.5613 19.0811 52.3466C18.9932 52.1319 18.9486 51.902 18.95 51.67C18.95 51.2032 19.1354 50.7555 19.4655 50.4255C19.7955 50.0954 20.2432 49.91 20.71 49.91C20.9419 49.9087 21.1718 49.9532 21.3865 50.0411C21.6012 50.1289 21.7964 50.2584 21.9609 50.4219C22.1254 50.5855 22.2559 50.78 22.345 50.9941C22.434 51.2083 22.48 51.438 22.48 51.67C22.48 52.1394 22.2935 52.5896 21.9615 52.9216C21.6296 53.2535 21.1794 53.44 20.71 53.44Z" fill="black"/>
<path d="M19.6302 35.89H16.9702V38.19H19.6302V35.89Z" fill="black"/>
<path d="M24.95 35.89H22.29V38.19H24.95V35.89Z" fill="black"/>
</g>
<defs>
<clipPath id="clip0_201_507">
<rect width="76.66" height="71.47" fill="white"/>
</clipPath>
</defs>
</svg>
