<svg width="59" height="58" viewBox="0 0 59 58" fill="none" xmlns="http://www.w3.org/2000/svg">
<g clip-path="url(#clip0_201_517)">
<path d="M13.2397 36.63C13.2424 40.7649 14.8854 44.7297 17.8082 47.6544C20.7311 50.5791 24.6949 52.2247 28.8297 52.23C32.9655 52.2247 36.9303 50.5795 39.8547 47.6551C42.7792 44.7306 44.4245 40.7658 44.4298 36.63C44.4245 32.4943 42.7792 28.5294 39.8547 25.605C36.9303 22.6806 32.9655 21.0353 28.8297 21.03C24.6949 21.0353 20.7311 22.6809 17.8082 25.6056C14.8854 28.5303 13.2424 32.4952 13.2397 36.63ZM42.0797 35.49H37.0797V37.78H42.0797C41.8071 40.8976 40.4448 43.8194 38.2319 46.0322C36.0191 48.2451 33.0973 49.6074 29.9797 49.88V44.88H27.6898V49.88C24.5723 49.6074 21.6505 48.2451 19.4376 46.0322C17.2248 43.8194 15.8623 40.8976 15.5897 37.78H20.5897V35.49H15.5897C15.8623 32.3725 17.2248 29.4507 19.4376 27.2378C21.6505 25.025 24.5723 23.6626 27.6898 23.39V26.51H29.9797V23.39C33.091 23.6612 36.008 25.0179 38.22 27.2226C40.432 29.4273 41.7982 32.3396 42.0797 35.45V35.49Z" fill="black"/>
<path d="M32.9198 27.63L29.3198 33.8C28.8461 33.6903 28.3535 33.6903 27.8797 33.8C27.0731 34.0102 26.3826 34.5317 25.9597 35.25C25.751 35.6074 25.6153 36.0027 25.5604 36.413C25.5055 36.8232 25.5324 37.2403 25.6398 37.64C25.85 38.4467 26.3714 39.1371 27.0897 39.56C27.5735 39.8388 28.1215 39.9869 28.6798 39.99C28.95 39.9872 29.2187 39.9502 29.4797 39.88C29.8782 39.7767 30.2523 39.5954 30.5802 39.3465C30.9081 39.0976 31.1832 38.7861 31.3898 38.43C31.6942 37.9088 31.8419 37.3109 31.8153 36.7079C31.7887 36.1049 31.5889 35.5224 31.2397 35.03L34.9098 28.76L32.9198 27.63ZM29.4098 37.3C29.2981 37.4924 29.1147 37.6327 28.8998 37.69C28.791 37.72 28.6773 37.7274 28.5655 37.712C28.4538 37.6965 28.3463 37.6584 28.2497 37.6C28.0595 37.4859 27.92 37.3035 27.8597 37.09C27.8298 36.9812 27.8223 36.8675 27.8378 36.7557C27.8532 36.644 27.8913 36.5365 27.9497 36.44C28.0653 36.247 28.252 36.107 28.4697 36.05C28.5394 36.0403 28.6101 36.0403 28.6798 36.05C28.8315 36.0495 28.9803 36.091 29.1097 36.17C29.3027 36.2856 29.4428 36.4723 29.4997 36.69C29.5407 36.8846 29.5087 37.0875 29.4098 37.26V37.3Z" fill="black"/>
<path d="M24.34 4.62H21.54V6.92H24.34V4.62Z" fill="black"/>
<path d="M30.08 4.62H27.29V6.92H30.08V4.62Z" fill="black"/>
<path d="M35.8198 4.62H33.0298V6.92H35.8198V4.62Z" fill="black"/>
<path d="M45.5098 11.54C48.0678 11.5385 50.5356 10.5942 52.4413 8.88776C54.347 7.18131 55.5569 4.83237 55.8397 2.29H58.3198V0H0.00976562V2.29H2.50977C2.79243 4.83066 4.00095 7.17822 5.90454 8.88444C7.80813 10.5907 10.2734 11.536 12.8297 11.54H27.5098V15.42C21.8773 15.7563 16.5855 18.2294 12.7145 22.3346C8.84344 26.4398 6.68507 31.8675 6.67981 37.51V55.51H3.53979V57.81H53.7898V55.52H50.9497V37.52C50.9429 31.824 48.743 26.3493 44.8066 22.2323C40.8703 18.1153 35.4998 15.6722 29.8098 15.41V11.55L45.5098 11.54ZM48.6898 37.54V55.54H8.99976V37.54C8.99318 34.9303 9.50102 32.3448 10.4943 29.9315C11.4875 27.5181 12.9467 25.3242 14.7883 23.4751C16.63 21.6261 18.818 20.1581 21.2273 19.1551C23.6366 18.1522 26.22 17.6339 28.8297 17.63C31.4386 17.6313 34.0217 18.1466 36.4314 19.1465C38.8411 20.1464 41.0302 21.6113 42.8735 23.4575C44.7169 25.3036 46.1784 27.4949 47.1747 29.9061C48.1709 32.3173 48.6824 34.9011 48.6798 37.51L48.6898 37.54ZM4.78979 2.32H53.5098C53.2425 4.25446 52.2862 6.02752 50.8165 7.31347C49.3469 8.59942 47.4626 9.31189 45.5098 9.32H12.8098C10.8479 9.31601 8.9538 8.60184 7.47766 7.30953C6.00152 6.01721 5.04314 4.23415 4.77979 2.29L4.78979 2.32Z" fill="black"/>
</g>
<defs>
<clipPath id="clip0_201_517">
<rect width="58.31" height="57.81" fill="white"/>
</clipPath>
</defs>
</svg>
