<?xml version="1.0" encoding="utf-8"?>
<!-- Generator: Adobe Illustrator 26.0.2, SVG Export Plug-In . SVG Version: 6.00 Build 0)  -->
<svg version="1.1" id="Layer_1" xmlns="http://www.w3.org/2000/svg" xmlns:xlink="http://www.w3.org/1999/xlink" x="0px" y="0px"
	 viewBox="0 0 795 239" style="enable-background:new 0 0 795 239;" xml:space="preserve">
<style type="text/css">
	.st0{fill:#AF0C37;}
	.st1{fill:#6D0827;}
	.st2{fill:#C41239;}
	.st3{fill:#820828;}
	.st4{fill:#A50A33;}
	.st5{fill:#5B0625;}
	.st6{fill:#9E0A31;}
	.st7{fill:#490320;}
	.st8{enable-background:new    ;}
</style>
<g>
	<path class="st0" d="M154.8,18.3c-2.4,0.7-4.7,1.5-7,2.5c-6,2.8-11.4,6.9-15.8,12.5c-12.1,15.2-12.6,35.9-2.6,51.3
		c0.4,0.7,0.9,1.4,1.4,2.1c-3.7,1-7.6,1.5-11.6,1.5c-0.6,0-1.2,0-1.8,0l0,0c-4.3-0.2-8.4-0.9-12.2-2.2c-0.9-0.3-1.8-0.7-2.8-1
		c-16-6.6-27.3-22.3-27.3-40.7c0-4.3,0.6-8.4,1.8-12.3c0.7-2.5,1.7-5,2.9-7.3C86.1,12.1,98.2,3,112.6,0.8l0,0
		c2.1-0.3,4.3-0.5,6.6-0.5C133.9,0.3,146.8,7.4,154.8,18.3z"/>
	<path class="st1" d="M163.3,195.3c0,4.3-0.6,8.4-1.8,12.3c-0.7,2.5-1.7,5-2.8,7.3c-6.3,12.5-18.4,21.7-32.7,23.9l0,0
		c-2.2,0.3-4.4,0.5-6.7,0.5c-14.6,0-27.5-7.1-35.5-18.1c2.4-0.6,4.7-1.5,7-2.5c6-2.8,11.4-6.9,15.8-12.5
		c12.1-15.2,12.6-35.9,2.6-51.3c-0.5-0.7-0.9-1.4-1.4-2.1c3.7-1,7.6-1.5,11.6-1.5c0.6,0,1.1,0,1.7,0l0,0c4.3,0.2,8.4,0.9,12.3,2.2
		c0.9,0.3,1.9,0.7,2.8,1C152,161.2,163.3,176.9,163.3,195.3z"/>
	<path class="st2" d="M101.6,87.8c0.8,0.2,1.6,0.3,2.5,0.5c-1.9,3.3-4.3,6.4-7.1,9.3c-0.4,0.4-0.8,0.8-1.2,1.2
		c-3.1,2.9-6.6,5.3-10.2,7.1c-0.9,0.4-1.8,0.9-2.7,1.2c-16,6.7-35.1,3.5-48.1-9.5c-3-3-5.5-6.4-7.5-10c-1.3-2.3-2.3-4.7-3.1-7.2
		c-4.5-13.3-2.4-28.3,6.3-40.1c1.3-1.8,2.7-3.4,4.3-5C45.1,25,59.3,20.8,72.7,22.9c-1.2,2.1-2.3,4.4-3.1,6.7c-2.3,6.2-3.2,13-2.4,20
		C69.3,68.9,83.7,83.9,101.6,87.8z"/>
	<path class="st3" d="M208.1,199.2L208.1,199.2c-1.3,1.8-2.7,3.5-4.3,5c-10.3,10.3-24.5,14.4-37.9,12.4c1.2-2.1,2.3-4.4,3.1-6.7
		c2.3-6.2,3.2-13,2.4-20c-2.2-19.3-16.5-34.2-34.5-38.1l0,0c-0.8-0.2-1.6-0.3-2.5-0.5c1.9-3.3,4.3-6.4,7.1-9.3
		c0.4-0.4,0.8-0.8,1.2-1.2l0,0c3.1-2.9,6.6-5.2,10.2-7.1c0.9-0.4,1.8-0.8,2.7-1.2c16-6.6,35.1-3.5,48,9.5c3,3,5.5,6.4,7.5,10
		c1.3,2.3,2.3,4.7,3.1,7.2C218.9,172.5,216.8,187.5,208.1,199.2z"/>
	<path class="st4" d="M216.2,73.2c-2.1-1.2-4.4-2.3-6.7-3.1c-6.2-2.3-13-3.2-20-2.4c-19.3,2.2-34.2,16.5-38.1,34.5l0,0
		c-0.2,0.8-0.3,1.7-0.5,2.5c-3.3-1.9-6.4-4.3-9.3-7.1c-0.4-0.4-0.8-0.8-1.2-1.2l0,0c-2.9-3.1-5.3-6.6-7.1-10.2
		c-0.4-0.9-0.8-1.8-1.2-2.7c-6.7-16-3.5-35.1,9.5-48c3-3,6.4-5.5,10-7.5c2.3-1.3,4.7-2.3,7.2-3.1c13.3-4.5,28.4-2.4,40.1,6.3
		c1.8,1.3,3.4,2.7,5,4.3C214.1,45.6,218.2,59.8,216.2,73.2z"/>
	<path class="st5" d="M97,204.3c-3,3-6.4,5.5-10,7.5c-2.3,1.3-4.7,2.3-7.2,3.1c-13.3,4.4-28.3,2.4-40-6.2l0,0
		c-1.8-1.3-3.5-2.8-5.1-4.4c-10.3-10.3-14.4-24.5-12.3-37.9c2.1,1.2,4.4,2.3,6.7,3.1c6.2,2.3,13,3.2,20,2.4
		c19.3-2.1,34.3-16.5,38.1-34.5c0.2-0.8,0.3-1.7,0.5-2.5c3.3,1.9,6.4,4.3,9.3,7.1c0.4,0.4,0.8,0.8,1.2,1.3l0,0
		c2.9,3.1,5.2,6.6,7.1,10.2c0.5,0.9,0.8,1.8,1.2,2.7C113.2,172.2,110,191.3,97,204.3z"/>
	<path class="st6" d="M238.8,119.8c0,14.6-7.1,27.5-18,35.5c-0.7-2.4-1.5-4.7-2.5-7c-2.8-6-6.9-11.4-12.5-15.8
		c-15.2-12.1-35.9-12.6-51.3-2.6c-0.7,0.5-1.4,0.9-2.1,1.4c-1-3.7-1.5-7.6-1.5-11.6c0-0.6,0-1.2,0-1.8l0,0c0.2-4.2,0.9-8.4,2.2-12.2
		c0.3-0.9,0.7-1.9,1-2.8c6.6-16,22.3-27.2,40.7-27.2c4.3,0,8.4,0.6,12.3,1.8c2.5,0.7,5,1.7,7.3,2.9c12.6,6.3,21.7,18.4,23.9,32.8
		l0,0C238.6,115.3,238.8,117.5,238.8,119.8z"/>
	<path class="st7" d="M86.3,108.2c-0.7,0.5-1.4,1-2.1,1.4c-15.5,10-36.2,9.5-51.3-2.6c-5.5-4.4-9.7-9.9-12.4-15.8
		c-1.1-2.2-1.9-4.6-2.5-7c-11,8-18.1,20.9-18.1,35.5c0,2.2,0.2,4.4,0.5,6.6l0,0c2.2,14.4,11.3,26.5,23.9,32.8
		c2.3,1.2,4.8,2.1,7.3,2.8c3.9,1.1,8,1.8,12.3,1.8c18.4,0,34.1-11.3,40.7-27.3c0.4-0.9,0.7-1.8,1-2.8c1.3-3.9,2.1-8,2.2-12.3l0,0
		c0-0.6,0-1.1,0-1.7C87.8,115.8,87.3,111.9,86.3,108.2z"/>
	<g class="st8">
		<path d="M337.8,123.4h-48.6c0.4,4.8,2.1,8.6,5,11.3c3,2.7,6.6,4.1,10.9,4.1c6.2,0,10.7-2.7,13.3-8h18.1c-1.9,6.4-5.6,11.7-11,15.8
			c-5.4,4.1-12.1,6.2-20,6.2c-6.4,0-12.1-1.4-17.2-4.3c-5.1-2.8-9-6.9-11.9-12.1c-2.8-5.2-4.3-11.2-4.3-18c0-6.9,1.4-12.9,4.2-18.1
			c2.8-5.2,6.7-9.2,11.8-12c5-2.8,10.8-4.2,17.4-4.2c6.3,0,12,1.4,17,4.1c5,2.7,8.9,6.6,11.6,11.6c2.8,5,4.1,10.7,4.1,17.2
			C338.3,119.4,338.1,121.5,337.8,123.4z M320.9,112.2c-0.1-4.3-1.6-7.8-4.7-10.4c-3-2.6-6.8-3.9-11.2-3.9c-4.2,0-7.7,1.3-10.5,3.8
			c-2.8,2.5-4.6,6-5.2,10.5H320.9z"/>
		<path d="M408.8,93.1c-1.9-3.5-4.6-6.2-7.9-8c-3.4-1.8-7.3-2.8-11.8-2.8c-5,0-9.4,1.1-13.2,3.4c-3.8,2.2-6.8,5.4-9,9.6
			c-2.2,4.2-3.2,9-3.2,14.4c0,5.6,1.1,10.5,3.3,14.6c2.2,4.2,5.3,7.4,9.2,9.6c3.9,2.2,8.5,3.4,13.7,3.4c6.4,0,11.6-1.7,15.7-5.1
			c4.1-3.4,6.8-8.1,8-14.2h-28.8v-12.8h45.4v14.6c-1.1,5.8-3.5,11.2-7.2,16.2c-3.7,5-8.4,8.9-14.2,11.9c-5.8,3-12.3,4.5-19.5,4.5
			c-8.1,0-15.4-1.8-21.9-5.5c-6.5-3.6-11.6-8.7-15.4-15.2c-3.7-6.5-5.6-13.8-5.6-22.1c0-8.2,1.9-15.6,5.6-22.1
			c3.7-6.5,8.8-11.6,15.4-15.2c6.5-3.6,13.8-5.5,21.8-5.5c9.4,0,17.6,2.3,24.6,6.9c7,4.6,11.8,11.1,14.4,19.4H408.8z"/>
		<path d="M442.4,100.3c2.7-5.2,6.3-9.2,10.9-12c4.6-2.8,9.7-4.2,15.4-4.2c5,0,9.3,1,13,3c3.7,2,6.7,4.5,8.9,7.6v-9.5h16.9v66.5
			h-16.9v-9.7c-2.2,3.1-5.1,5.7-8.9,7.7c-3.8,2-8.2,3.1-13.1,3.1c-5.6,0-10.7-1.4-15.3-4.3c-4.6-2.9-8.2-6.9-10.9-12.2
			c-2.7-5.2-4-11.3-4-18.1C438.3,111.4,439.7,105.5,442.4,100.3z M488.3,107.9c-1.6-2.9-3.8-5.2-6.5-6.7c-2.7-1.6-5.6-2.3-8.8-2.3
			c-3.1,0-6,0.8-8.6,2.3c-2.6,1.5-4.8,3.7-6.4,6.7c-1.6,2.9-2.5,6.4-2.5,10.4c0,4,0.8,7.5,2.5,10.5c1.6,3,3.8,5.3,6.5,6.9
			c2.7,1.6,5.5,2.4,8.6,2.4c3.1,0,6-0.8,8.8-2.3c2.7-1.6,4.9-3.8,6.5-6.7c1.6-2.9,2.4-6.4,2.4-10.5S489.9,110.8,488.3,107.9z"/>
		<path d="M523.7,100.3c2.7-5.2,6.3-9.2,11-12c4.6-2.8,9.8-4.2,15.5-4.2c4.3,0,8.4,0.9,12.4,2.8c3.9,1.9,7,4.4,9.4,7.5V62.8h17v88.8
			h-17v-9.8c-2.1,3.3-5,5.9-8.8,7.9c-3.8,2-8.1,3-13.1,3c-5.6,0-10.7-1.4-15.4-4.3c-4.6-2.9-8.3-6.9-11-12.2c-2.7-5.2-4-11.3-4-18.1
			C519.7,111.4,521,105.5,523.7,100.3z M569.6,107.9c-1.6-2.9-3.8-5.2-6.5-6.7c-2.7-1.6-5.6-2.3-8.8-2.3c-3.1,0-6,0.8-8.6,2.3
			c-2.6,1.5-4.8,3.7-6.4,6.7c-1.6,2.9-2.5,6.4-2.5,10.4c0,4,0.8,7.5,2.5,10.5c1.6,3,3.8,5.3,6.5,6.9c2.7,1.6,5.5,2.4,8.6,2.4
			c3.1,0,6-0.8,8.8-2.3c2.7-1.6,4.9-3.8,6.5-6.7c1.6-2.9,2.4-6.4,2.4-10.5S571.2,110.8,569.6,107.9z"/>
		<path d="M644.5,87c3.8,2,6.7,4.5,8.9,7.6v-9.5h16.9v67c0,6.2-1.2,11.7-3.7,16.5c-2.5,4.8-6.2,8.7-11.2,11.5c-5,2.8-11,4.3-18,4.3
			c-9.4,0-17.2-2.2-23.2-6.6c-6-4.4-9.5-10.4-10.3-18h16.7c0.9,3,2.8,5.5,5.7,7.3c2.9,1.8,6.5,2.7,10.6,2.7c4.9,0,8.8-1.5,11.9-4.4
			c3-2.9,4.6-7.3,4.6-13.3v-10.3c-2.2,3.1-5.1,5.7-8.9,7.8c-3.8,2.1-8.1,3.1-13,3.1c-5.6,0-10.7-1.4-15.4-4.3
			c-4.6-2.9-8.3-6.9-11-12.2c-2.7-5.2-4-11.3-4-18.1c0-6.7,1.3-12.7,4-17.9c2.7-5.2,6.3-9.2,10.9-12c4.6-2.8,9.7-4.2,15.4-4.2
			C636.4,84.1,640.7,85.1,644.5,87z M651,107.9c-1.6-2.9-3.8-5.2-6.5-6.7c-2.7-1.6-5.6-2.3-8.8-2.3c-3.1,0-6,0.8-8.6,2.3
			c-2.6,1.5-4.8,3.7-6.4,6.7c-1.6,2.9-2.5,6.4-2.5,10.4c0,4,0.8,7.5,2.5,10.5c1.6,3,3.8,5.3,6.5,6.9c2.7,1.6,5.5,2.4,8.6,2.4
			c3.1,0,6-0.8,8.8-2.3c2.7-1.6,4.9-3.8,6.5-6.7c1.6-2.9,2.4-6.4,2.4-10.5S652.6,110.8,651,107.9z"/>
		<path d="M748.1,123.4h-48.6c0.4,4.8,2.1,8.6,5,11.3c3,2.7,6.6,4.1,10.9,4.1c6.2,0,10.7-2.7,13.3-8h18.1c-1.9,6.4-5.6,11.7-11,15.8
			c-5.4,4.1-12.1,6.2-20,6.2c-6.4,0-12.1-1.4-17.2-4.3c-5.1-2.8-9-6.9-11.9-12.1c-2.8-5.2-4.3-11.2-4.3-18c0-6.9,1.4-12.9,4.2-18.1
			c2.8-5.2,6.7-9.2,11.8-12c5-2.8,10.8-4.2,17.4-4.2c6.3,0,12,1.4,17,4.1c5,2.7,8.9,6.6,11.6,11.6c2.8,5,4.1,10.7,4.1,17.2
			C748.5,119.4,748.4,121.5,748.1,123.4z M731.1,112.2c-0.1-4.3-1.6-7.8-4.7-10.4c-3-2.6-6.8-3.9-11.2-3.9c-4.2,0-7.7,1.3-10.5,3.8
			c-2.8,2.5-4.6,6-5.2,10.5H731.1z"/>
		<path d="M780.3,99v32.2c0,2.2,0.5,3.9,1.6,4.9c1.1,1,2.9,1.5,5.5,1.5h7.8v14.2h-10.6c-14.2,0-21.2-6.9-21.2-20.6V99h-7.9V85.2h7.9
			V68.7h16.9v16.4h14.9V99H780.3z"/>
	</g>
</g>
</svg>
